Coordinates
version=1
nRows=17
nColumns=40
inDegrees=yes

Units are S.I. units (second, meters, Newtons, ...)
Angles are in degrees.

endheader
time	pelvis_tilt	pelvis_list	pelvis_rotation	pelvis_tx	pelvis_ty	pelvis_tz	hip_flexion_r	hip_adduction_r	hip_rotation_r	knee_angle_r	knee_angle_r_beta	ankle_angle_r	subtalar_angle_r	mtp_angle_r	hip_flexion_l	hip_adduction_l	hip_rotation_l	knee_angle_l	knee_angle_l_beta	ankle_angle_l	subtalar_angle_l	mtp_angle_l	lumbar_extension	lumbar_bending	lumbar_rotation	arm_flex_r	arm_add_r	arm_rot_r	elbow_flex_r	pro_sup_r	wrist_flex_r	wrist_dev_r	arm_flex_l	arm_add_l	arm_rot_l	elbow_flex_l	pro_sup_l	wrist_flex_l	wrist_dev_l
     11.04500000	     -3.68370917	     -5.93278880	      9.27694562	      1.09646537	      0.92469963	      0.47647252	      1.38511226	      4.76497099	    -17.34760688	      9.80829934	      9.80829934	     14.25455567	      1.69524186	     -6.19485845	     30.62662024	     -7.68890093	     -1.53181645	     22.87784534	     22.87784534	      5.45777296	     -8.04299243	      7.86901580	     -9.78718174	      5.01790536	      3.93764257	     37.83694362	    -16.21751234	     -6.41672726	     86.56231819	     44.80881704	      0.00000000	      0.00000000	     -6.11690276	     -8.09831118	     -4.20027954	     31.44670319	     46.24296695	      0.00000000	      0.00000000
     11.05835714	     -3.64256055	     -5.95369146	      9.11178261	      1.09773277	      0.92388415	      0.47480903	      0.99704343	      4.70266640	    -17.14346436	     10.11545476	     10.11545476	     15.02877002	      1.72747290	     -5.07374784	     29.75546426	     -7.58455955	     -1.62866509	     22.87048173	     22.87048173	      4.29266619	     -9.56912437	      5.73427158	     -9.58452230	      4.84348069	      3.76467691	     37.50943858	    -15.89383507	     -5.81558995	     84.09223220	     44.88704057	      0.00000000	      0.00000000	     -6.31970544	     -8.25181568	     -4.98690449	     33.12479555	     46.33848648	      0.00000000	      0.00000000
     11.07171429	     -3.60714794	     -5.98577464	      8.96138870	      1.09904611	      0.92315871	      0.47307355	      0.56709339	      4.64977234	    -16.94790486	     10.29114404	     10.29114404	     15.38158512	      1.76333344	     -5.10994103	     29.11333821	     -7.59050519	     -1.87284694	     23.23182258	     23.23182258	      4.35478113	     -9.90745169	      5.54640658	     -9.44743885	      4.80637819	      3.79232703	     36.54818533	    -15.36179367	     -5.46614201	     83.66306792	     44.88676067	      0.00000000	      0.00000000	     -5.82852735	     -8.51959766	     -5.09007634	     33.39180168	     46.35917493	      0.00000000	      0.00000000
     11.08507143	     -3.59756458	     -5.90981136	      8.79862157	      1.10018730	      0.92261879	      0.47115520	      0.30075555	      4.41826621	    -16.73036054	     10.75989375	     10.75989375	     15.88005650	      1.67270787	     -4.70436254	     28.48134829	     -7.44760679	     -1.99470018	     23.43675296	     23.43675296	      4.25076283	    -10.46260127	      4.90520765	     -9.29920046	      4.54349668	      4.00092103	     35.57006285	    -15.43608123	     -4.97517024	     81.97817692	     44.92817761	      0.00000000	      0.00000000	     -5.31694823	     -8.71922791	     -5.44357531	     34.09064782	     46.40929056	      0.00000000	      0.00000000
     11.09842857	     -3.55667174	     -5.89248505	      8.71270148	      1.10121667	      0.92231834	      0.46909612	     -0.04881633	      4.26552622	    -16.60382061	     11.06356180	     11.06356180	     16.11301099	      1.60785548	     -4.60778468	     27.98644917	     -7.34975860	     -1.96045366	     23.76590312	     23.76590312	      4.48597140	    -10.76990758	      4.61181205	     -9.28932658	      4.41719603	      3.87050411	     34.38006837	    -14.97818887	     -4.56594993	     81.23952486	     44.93523679	      0.00000000	      0.00000000	     -4.74603920	     -8.94778765	     -5.55520879	     34.40509626	     46.43129446	      0.00000000	      0.00000000
     11.11178571	     -3.58205529	     -5.82124514	      8.59718207	      1.10191579	      0.92222391	      0.46684219	     -0.01811322	      3.93432407	    -16.43372871	     12.02421501	     12.02421501	     17.13678830	      1.56744113	     -2.35849532	     27.48096559	     -7.12685209	     -1.72898181	     23.76895273	     23.76895273	      4.07167171	    -11.60798173	      2.97721797	     -9.15988277	      4.20100311	      3.07256243	     34.38577168	    -14.46383263	     -2.55386012	     77.28634540	     45.02121186	      0.00000000	      0.00000000	     -4.73687195	     -9.08607505	     -6.65029970	     35.34912204	     46.54425002	      0.00000000	      0.00000000
     11.12514286	     -3.52400407	     -5.77225624	      8.59042362	      1.10260256	      0.92245464	      0.46440837	     -0.30300685	      3.70517113	    -16.37331234	     12.43698442	     12.43698442	     17.19252854	      1.44416651	     -2.36739704	     27.09498935	     -6.96672197	     -1.56374543	     24.07449331	     24.07449331	      4.52015247	    -11.75507548	      2.73793535	     -9.25963800	      4.07860764	      2.95324334	     32.95866827	    -14.11136683	     -2.20091098	     76.61620904	     45.02603708	      0.00000000	      0.00000000	     -3.92916176	     -9.31422415	     -6.73009509	     35.69757753	     46.56544724	      0.00000000	      0.00000000
     11.13850000	     -3.62841732	     -5.58763942	      8.42897414	      1.10289921	      0.92265483	      0.46192533	      0.03173231	      3.14991283	    -16.18078701	     13.71384678	     13.71384678	     17.41639345	      0.98659446	     -2.32490057	     26.84497416	     -6.68732796	     -1.58302869	     24.30664141	     24.30664141	      4.97565186	    -11.98283447	      2.50856189	     -9.19705450	      3.73440221	      3.51794997	     31.49702334	    -14.70895319	     -1.60058729	     74.57333872	     45.07080036	      0.00000000	      0.00000000	     -2.84648396	     -9.43539076	     -6.89925204	     36.22566610	     46.59735204	      0.00000000	      0.00000000
     11.15185714	     -3.70141196	     -5.52142149	      8.33989861	      1.10307326	      0.92310878	      0.45929869	      0.34738365	      2.73389665	    -16.00044328	     14.94921697	     14.94921697	     17.58376200	      0.54657851	     -2.11884619	     26.59544369	     -6.49946589	     -1.48613163	     24.48320794	     24.48320794	      5.44405750	    -12.15057259	      2.34304228	     -9.19452785	      3.59093790	      3.52879688	     30.31921024	    -14.77780448	     -0.54154435	     72.32399650	     45.10870039	      0.00000000	      0.00000000	     -1.84697416	     -9.56189025	     -6.95420593	     36.42915834	     46.60926528	      0.00000000	      0.00000000
     11.16521429	     -3.74299024	     -5.47685715	      8.23424269	      1.10317650	      0.92377448	      0.45661990	      0.72670414	      2.32423958	    -15.77412600	     16.33977671	     16.33977671	     17.70330277	      0.04109368	     -1.64824013	     26.31963321	     -6.35417987	     -1.46128295	     24.66395923	     24.66395923	      5.98954627	    -12.23242221	      2.28207694	     -9.18633506	      3.48779363	      3.04696289	     29.85813914	    -14.58905236	      1.67089229	     68.65595387	     45.16218189	      0.00000000	      0.00000000	     -1.03901591	     -9.78912200	     -6.91530726	     36.31041217	     46.59087695	      0.00000000	      0.00000000
     11.17857143	     -3.79066877	     -5.37068438	      8.05546643	      1.10318778	      0.92451790	      0.45395461	      1.30741389	      1.77000040	    -15.57048243	     18.07877200	     18.07877200	     17.61005340	     -0.49354193	     -1.96460369	     25.92372553	     -6.19462727	     -1.66676645	     24.65270515	     24.65270515	      6.48692634	    -12.14585886	      2.07667359	     -9.29403418	      3.30672010	      3.29753440	     28.34020756	    -14.75133474	      2.38545890	     66.92827842	     45.19063999	      0.00000000	      0.00000000	      0.00364463	     -9.88629751	     -6.95549576	     36.88372795	     46.60553842	      0.00000000	      0.00000000
     11.19192857	     -3.85677773	     -5.32424768	      7.84612533	      1.10304571	      0.92526893	      0.45132415	      2.07176141	      1.28303951	    -15.12972066	     20.02245329	     20.02245329	     17.18776365	     -1.46728661	     -2.84849709	     25.54876734	     -6.10043024	     -1.90386752	     24.62427971	     24.62427971	      6.94867831	    -12.04676165	      1.89099921	     -9.31125689	      3.23058239	      2.93642819	     27.88370839	    -14.60685613	      4.72718680	     62.93257721	     45.24711303	      0.00000000	      0.00000000	      0.80984773	    -10.16504729	     -6.57317904	     37.05445636	     46.54465355	      0.00000000	      0.00000000
     11.20528571	     -3.91363357	     -5.21434254	      7.57001179	      1.10285331	      0.92597913	      0.44875056	      3.09032912	      0.61908430	    -14.81564393	     22.48780007	     22.48780007	     16.90272079	     -2.22795943	     -3.50265892	     25.09061323	     -5.97448779	     -2.28353869	     24.51715985	     24.51715985	      7.38697409	    -11.90680209	      1.65176318	     -9.45938441	      3.05419889	      3.26918618	     26.23956804	    -14.74878317	      5.34595140	     61.31821734	     45.27267967	      0.00000000	      0.00000000	      1.89082959	    -10.25667453	     -6.57511087	     37.69617302	     46.55798745	      0.00000000	      0.00000000
     11.21864286	     -3.96388150	     -5.11441285	      7.27129043	      1.10258140	      0.92663596	      0.44626380	      4.33236216	     -0.05031237	    -14.34351891	     25.31770447	     25.31770447	     16.40647355	     -3.22860701	     -4.33026855	     24.60676436	     -5.86903264	     -2.71149042	     24.37901399	     24.37901399	      7.74443256	    -11.76154946	      1.40958280	     -9.57877806	      2.90086488	      3.54439835	     24.68524241	    -14.84690456	      6.10132554	     59.36916602	     45.30458257	      0.00000000	      0.00000000	      3.00209614	    -10.34649078	     -6.47430279	     38.25048988	     46.55960962	      0.00000000	      0.00000000
     11.23200000	     -4.08395981	     -5.10691002	      6.93072660	      1.10216337	      0.92706406	      0.44399475	      5.71644749	     -0.54847661	    -13.64505156	     28.01768531	     28.01768531	     14.47235188	     -5.19858438	     -8.42936789	     24.20241518	     -5.85498274	     -3.10317533	     24.19684985	     24.19684985	      7.85129583	    -11.77083054	      0.64716370	     -9.48021385	      2.85768483	      2.80995582	     24.98400624	    -14.35238326	      9.51376127	     53.52653020	     45.37649829	      0.00000000	      0.00000000	      3.26664235	    -10.98194954	     -5.31091261	     39.14851888	     46.40880089	      0.00000000	      0.00000000
     11.24535714	     -4.08282858	     -4.94344477	      6.57318646	      1.10166564	      0.92759188	      0.44168703	      7.32586202	     -1.32836619	    -13.06905853	     31.51485919	     31.51485919	     13.62247238	     -6.35489615	     -9.14382673	     23.61932511	     -5.69572229	     -3.59782523	     23.99859633	     23.99859633	      8.17196670	    -11.64665627	      0.45637560	     -9.73156146	      2.65968369	      3.02519429	     23.29491669	    -14.40452074	      9.99649882	     52.13014130	     45.39721518	      0.00000000	      0.00000000	      4.34692198	    -11.10293538	     -5.32900736	     39.78544183	     46.42652821	      0.00000000	      0.00000000
     11.25871429	     -4.14670425	     -4.80351165	      6.19122926	      1.10104639	      0.92785854	      0.43950872	      9.19670373	     -2.06633208	    -12.37701697	     35.23984918	     35.23984918	     12.41434100	     -7.71961037	     -9.95497164	     23.15484837	     -5.55361656	     -4.06623141	     23.86263509	     23.86263509	      8.44449905	    -11.60570012	      0.22659594	     -9.88035878	      2.48706064	      3.24386394	     21.63683574	    -14.46115498	     10.55716793	     50.35635601	     45.42814923	      0.00000000	      0.00000000	      5.40654424	    -11.23676439	     -5.25696884	     40.42728797	     46.43409182	      0.00000000	      0.00000000
